# xmcd
#
# Track frame offsets:
#	150
#	25424
#	37323
#	59861
#	77234
#	90722
#	105814
#	122069
#	140802
#	166276
#	177472
#	212282
#
# Disc length: 2963 seconds
#
# Revision: 1
# Processed by: cddbd v1.5.1PL0 Copyright (c) Steve Scherf et al.
# Submitted via: audiograbber 1.82.01
#
DISCID=ab0b910c
DTITLE=Биг Блюз Ривайвл - Северный Блюз
DYEAR=2004
DGENRE=Blues
TTITLE0=Тонечка (Городской Романс)
TTITLE1=В Кейптаунском Порту
TTITLE2=Черная Моль
TTITLE3=Дело - Пятерик
TTITLE4=Специальность Имею Водителя...
TTITLE5=Девушка В Платье Из Ситца
TTITLE6=О Ленинграде
TTITLE7=Стерва
TTITLE8=Ой, Мама, Мама
TTITLE9=Витенька
TTITLE10=Мишки
TTITLE11=Data Track
EXTD=
EXTT0=
EXTT1=
EXTT2=
EXTT3=
EXTT4=
EXTT5=
EXTT6=
EXTT7=
EXTT8=
EXTT9=
EXTT10=
EXTT11=
PLAYORDER=
